<svg xmlns="http://www.w3.org/2000/svg" version="1.1" xmlns:xlink="http://www.w3.org/1999/xlink" xmlns:svgjs="http://svgjs.dev/svgjs" viewBox="0 0 1422 800"><defs><linearGradient x1="50%" y1="0%" x2="50%" y2="100%" id="ssscribble-grad"><stop stop-color="hsl(206, 75%, 49%)" stop-opacity="1" offset="0%"></stop><stop stop-color="hsl(331, 90%, 56%)" stop-opacity="1" offset="100%"></stop></linearGradient></defs><g fill="none" stroke-width="2.25" stroke="url(#ssscribble-grad)" stroke-linecap="round" stroke-dasharray="3"><path d="M1407.7 679.96C1414.46 697.17 1482.72 715.14 1597.05 733.77 1734.22 752.36 1864.4 771.52 1960.98 791.1 2005.56 810.47 1988.71 830.05 1914.7 849.63 1798.05 868.73 1661.81 887.51 1531.93 905.68 1379.36 939.47 1440.26 968.3 1656.96 989.28 1878.15 1003.32 1947.8 1005.96 1824.07 995.06 1580.92 975.88 1362.6 943.17 1283.61 898.48 1373.86 852.43 1566.52 802.7 1747.01 756.44 1824.61 726.36 1755.27 714.48 1575.47 729.02 1355.2 775.09 1183.1 853.17 1110.46 961.21 1148.09 1087.55 1264.82 1223.01 1405.71 1350.98 1528.88 1451.58 1587.1 1512.26 1569.8 1521.04 1483.2 1478.46 1349.52 1389.84 1199.04 1271.97 1046.43 1155.11 919.83 1061.69 827.38 1017.52 766.24 1039.72 737.13 1127.33 729.46 1266.3 740.87 1426.07 757.82 1571.42 771.65 1665.76 780.36 1685.53 786.75 1684.64 790.32 1662.83 794.23 1622.12 794.93 1564.52 792.18 1493.87 789.48 1416.08 783.24 1335.74 773.36 1258.74 763.48 1191.69 749.97 1138.79 732.75 1104.28 715.54 1091.54 694.82 1100.94 670.7 1131.35 646.57 1180.94 619.04 1245.15 588.2 1319 557.41 1398.01 523.43 1475.52 486.5 1546.03 449.91 1605.62 410.77 1649.32 369.59 1674.4 290.82 1665.12 210.08 1579.72 136.21 1441.37 81.41 1281.65 49.37 1137.66 50.83 1038.5 83.62 1001.1 152.03 1027.68 248.11 1105.08 342.05 1216.53 420.85 1331.77 454.38 1426.24 418.61 1485.91 309.15 1495.86 136.71 1456.47 -53.44 1373.8 -217.45 1260.45 -300.21 1132.8 -272.69 1001.66 -143.57 883.99 36.04 788.83 175.18 719.02 206.18 678.26 92.73 663.01 -123.6 671.46 -349.62 695.42 -470.59 727.41 -422.31 768.15 -232.06 806.29 -14.14 837.53 84.34 866.8 -7.72 885.16 -248.34 892.38 -484.46 894.94 -561.81 887.43 -422.52 871.52 -299.29 862.45 -168.91 851.75 -57.3 839.64 11.65 827.07 24.27 813.37 -23.71 798.73 -123.7 783.87 -256.45 768.28 -395.35 752.08 -511.4 735.82 -580.53 719.07 -587.29 701.85 -530.09 684.63 -421.42 667.17 -284.8 649.42 -148.27 631.62 -40.1 613.43 18.52 594.76 16.63 575.86 -43.99 556.28 -149.67 535.83 -279.89 514.92 -407.28 492.87 -506.99 469.47 -558.72 420.44 -397.14 364.18 -137.4 299.14 52.34 229.46 55.15 149.95 -112.7 61.02 -339.31 -29.88 -474.22 -126.21 -439.1 -223.49 -252.23 -312.01 -13.88 -390.87 159.38 -452.39 196.93 -490.21 96.53 -500.71 -75.41 -480.17 -240.23 -434.28 -316.08 -363.9 -276.39 -277.89 -135.02 -195.36 57.37 -124.98 240.96 -82.96 376.13 -84.22 432.12 -132.49 414.37 -228.01 336.54 -358.33 233.79 -506.93 136.89 -649.1 56.73 -757.21 17.14 -811.86 18.48 -799.72 54.87 -725.8 120.14 -604.23 200.99 -463.95 296.47 -345.02 390.91 -276.05 477.19 -280.04 520.83 -311.75 561.41 -361.3 598.68 -425.93 635.77 -501.48 669.48 -583.23 699.79 -665.64 729.9 -742.9 756.74 -809.69 780.32 -861.01 803.84 -893.16 824.22 -903.44 841.44 -890.71 858.65 -856.22 872.5 -802.45 882.98 -733.68 893.4 -654.96 900.34 -572.05 903.76 -490.85 906.99 -416.79 906.57 -354.95 902.5 -309.18 898.25 -282.32 890.42 -275.56 879.25 -288.67 857.91 -369.71 827.25 -498.62 794.24 -638.96 775.86 -758.51 771.74 -823.71 795.02 -820.69 853.35 -751.29 951.13 -629.82 1087.82 -482.25 1241.26 -333.66 1398.89 -211.68 1529.79 -133.23 1600.6 -106.16 1595.87 -128.48 1509.96 -188.42 1375.64 -275.73 1230.52 -368.21 1134.27 -449.43 1139.72 -512.35 1258.54 -543.15 1464.02 -539.97 1676.63 -505.25 1815.36 -442.12 1813.66 -358.98 1676.24 -259.66 1471.26 -155.05 1315.11 -52.46 1310.69 48.76 1473.67 139.65 1725.5 218.5 1918.6 289.08 1938.22 347.59 1767.89 396.03 1527.59 437.52 1382.45 472.48 1447.47 503.62 1553.82 517.92 1687.06 531.9 1822.33 545.82 1933.06 559.26 1997.92 572.96 2003.22 587.12 1947.99 601.08 1842.4 615.7 1707.59 631.11 1572.7 646.48 1464.9 662.74 1407.7 679.96Q1407.7 679.96 1407.7 679.96" opacity="0.48"></path><path d="M1355.22 679.66C1421.28 712.28 1653.41 741.16 1882.12 765.84 1950.75 789.81 1811.15 808.25 1561.12 819.97 1360.45 829.4 1332.93 830.37 1482.06 821.92 1710.87 810.47 1871.55 789.5 1871.05 759.92 1709.76 730.63 1474.94 697.05 1285.52 663.43 1224.67 639.73 1309.44 625.26 1481.68 626.35 1659.66 649.25 1753.75 695.42 1727.31 767.36 1590.41 860.97 1394.96 973.96 1207.41 1098.41 1075.62 1219.42 1033.02 1328.1 1072.96 1410.23 1176.24 1454.25 1299.37 1454.16 1405.31 1407.9 1476.89 1326.39 1492.32 1219.77 1455.37 1107.83 1373.56 1017.8 1263.54 965.92 1143.67 968.36 1017.1 1030.66 903.4 1144.47 807.96 1290.8 723.85 1439.67 658.86 1561.28 608.76 1627.3 567.11 1622.86 533.38 1547.08 502.88 1416.7 474.69 1267.25 445.17 1133.53 412.56 1051.77 379.94 1046.88 344.98 1117.21 309.64 1241.74 276.61 1390.75 247.73 1523.02 227.86 1606.58 216.45 1624.52 221.01 1571.11 245.94 1460.35 282.2 1315.4 337.96 1167.05 408.01 1043.65 471.34 965.2 526.24 942.98 554.49 974.39 537.88 1051.46 470.46 1152.88 348.6 1257.07 192.39 1349.72 20.7 1410.28 -129.24 1430.6 -215.85 1410.03 -218.04 1350.08 -129 1260.41 15.79 1148.83 170.51 1029.55 268.91 913.9 256.82 806.33 126.41 717.07 -85.52 648.73 -291.72 600.59 -408.11 572.8 -376.35 561.24 -216.03 565.03 -7.78 577.45 129.58 593.49 106.17 615.79 -75.73 635.53 -322.96 649.92 -490.49 664.98 -478.55 672.36 -290.47 671.44 -53.03 669.71 76.96 659.82 1.88 642.03 -233.28 623.85 -468.71 598.42 -534.77 565.81 -381.82 533.19 -122.56 494.15 58.81 448.79 40.67 403.06 -156.85 350.34 -392.54 290.55 -512.31 229.96 -435.37 162.16 -214.19 87.92 20.73 14.35 133.71 -63.31 74 -142.14 -115.59 -214.72 -317.11 -282.27 -419.38 -339.62 -371.51 -381.62 -195.05 -405.84 25.82 -407.97 202.99 -389.91 267.23 -349.21 211.25 -288.32 66.98 -219.34 -94.39 -144.85 -208.9 -76.02 -241.72 -29.1 -178.54 -9.86 -44.09 -27.79 131.13 -86.62 299.88 -183.49 430.28 -310.1 509.42 -448.26 529.62 -581.28 503.87 -687.46 440.99 -747.98 365.72 -752.35 295.54 -697.82 230.29 -598.34 188.17 -471.23 170.02 -344.69 167.87 -252.32 185.2 -214.47 215.37 -244.99 254.34 -341.12 297.7 -482.98 340.27 -638.44 384.92 -769.44 424.54 -843.09 457.15 -838.22 489.77 -756.48 514.63 -619.46 533.51 -463.57 554.47 -326.72 573.72 -241.32 596.27 -224.28 627.62 -277.7 670.71 -383.72 732.04 -514.18 809.38 -642.11 909.43 -734.69 1031.21 -773.09 1157.92 -751.64 1288.31 -673.18 1404.75 -554.06 1484.06 -413.03 1515.86 -274.79 1486.99 -159.32 1406.87 -79.08 1286.67 -42.66 1158.11 -48.15 1070.33 -91.76 1051.94 -159.73 1127.51 -237.97 1284.78 -319.67 1486.88 -387.88 1669.66 -434.82 1764.15 -460.09 1736.24 -457.72 1593.03 -430.35 1406.12 -381.17 1261.27 -314.71 1242.5 -237.46 1373.85 -150.28 1601.96 -61.58 1815.47 24.24 1899.09 110.34 1807.35 189.25 1590.82 259.88 1388.05 327.52 1326.69 386.97 1459.05 439.06 1707.32 488.86 1914.45 533.03 1939.05 572.6 1764.12 611.46 1508.17 647.04 1355.22 679.66Q1355.22 679.66 1355.22 679.66" opacity="0.19"></path><path d="M1302.72 496.14C1359.45 526.95 1571.26 550.16 1798.46 565.91 1901.47 581.48 1815.28 589.31 1596.38 589.59 1371.04 589.78 1266.45 582.87 1330.29 569.92 1622.77 551.54 1704.79 519.64 1400.31 524.38 1224.41 544.91 1162.45 580.7 1224.13 634.82 1376.08 705.97 1544.27 794.96 1660.67 899.06 1687.17 1008.85 1611.68 1120.88 1463.27 1225.41 1279.66 1310.17 1113.59 1368.68 999.44 1392.36 951.43 1379.25 970.34 1328.92 1036.38 1246.95 1134.54 1149.98 1232.53 1049.13 1310.43 962.88 1364.61 911.92 1381.17 905.52 1364.01 950.75 1318.62 1044.02 1252.31 1172.7 1175.81 1316.01 1088.36 1447 1003.32 1541.96 926.1 1580.35 847.97 1554.83 781.16 1468.56 726.51 1338.98 672.38 1198.03 629.82 1074.76 599.02 999.27 568.21 992.52 549.88 1053.39 544 1165.21 538.64 1304.33 546.33 1435.8 566.36 1530.87 585.48 1572.37 613.45 1549.8 645.01 1469.68 665.61 1347.49 677.2 1206.72 669.21 1072.49 632.98 964.76 564.36 900.02 459.6 883.67 331.11 915.21 184.01 983.26 38.37 1072.27 -75.14 1170.79 -139.91 1258.21 -135.97 1322.01 -65.9 1357.54 57.86 1357.22 201.08 1323.19 309.12 1259.43 346.16 1173.16 283.28 1073.79 130.5 965.65 -71.98 859.88 -256.01 762.74 -349.76 674.39 -317.66 601.27 -169.23 543.53 22.08 499.15 168.33 468.13 187.23 447.3 57.33 436.08 -166.45 430.13 -374.45 426.15 -455.67 426.72 -365.8 425.46 -152.34 420.31 54.66 416.57 131.78 407.12 22.68 390.98 -210.61 375.07 -425.54 351.93 -482.27 321.13 -342.26 290.32 -98.44 252.58 93.05 208.48 116.56 164.62 -35.87 114.94 -263.64 60.58 -432.71 7.64 -440.59 -48.17 -287.02 -104.63 -54.24 -156.54 134.6 -205.32 191.23 -247.49 97.07 -280.04 -88.57 -301.09 -267.85 -307.3 -359.93 -300.15 -318.84 -276.14 -166.5 -235.27 40.5 -185.62 222.66 -125.71 323.37 -61.64 320.38 -6.35 228.19 37.61 91.35 61.01 -48.8 54.66 -140.74 16.54 -162.31 -55.35 -111.5 -155.52 -1.06 -277.24 141.16 -407.84 296.49 -528.93 433.9 -626.84 538.79 -685.86 609.16 -697 640.89 -657.38 643.04 -572.24 619.37 -460.59 584.04 -339.88 547.64 -235.07 505.63 -172.33 473.43 -164.45 454.12 -217.82 436.78 -324.78 433.05 -465.3 441.96 -610.52 452.08 -728.44 472.84 -792.46 503.65 -785.72 534.46 -710.25 574.58 -583.87 624.47 -436.82 675.56 -301.14 738.42 -205.79 813.86 -168.36 891.27 -194.85 980.54 -275.09 1078.44 -388.69 1170.74 -514.62 1260.78 -623.24 1337.84 -693.94 1389.08 -716.6 1409.42 -685.11 1389.63 -606.68 1335.32 -492.96 1247.02 -362.25 1139.17 -233.2 1044.42 -119.15 979.83 -34.51 973.11 14.97 1038.75 27.68 1172.99 7.62 1353.54 -36.73 1530.75 -100.89 1661.39 -170.62 1700.76 -236.32 1636.43 -296.35 1488.57 -339.49 1313.64 -363.16 1193.38 -369.8 1182.14 -356.49 1301.69 -326.44 1508.45 -282.13 1719.21 -227.02 1835.95 -165.57 1801.9 -97.13 1633.11 -27.91 1417.71 39.11 1281.54 107.95 1304.12 171.93 1485.08 229.84 1724.75 287.66 1886.25 338.95 1868.83 383.39 1683.43 427.66 1442.73 465.33 1302.72 496.14Q1302.72 496.14 1302.72 496.14" opacity="0.15"></path><path d="M1250.22 249.62C1298.2 278.61 1489.39 301.09 1710.6 317.53 1840.86 334.31 1806.61 345.79 1630.78 353.08 1323.72 365.42 1435.01 393.52 1704.05 420.96 1779.01 449.95 1720.44 488.81 1557.16 539.86 1350.87 601.85 1181.27 676.96 1102.05 764.5 1130.9 858.05 1245.46 957.81 1395.46 1058.19 1534.34 1149.49 1611.06 1228.37 1607.04 1286.88 1525.09 1318.95 1387.45 1321.11 1228.57 1291.13 1073.21 1235.05 953.43 1155.82 881.31 1063.2 858.33 974.74 878.99 899.74 927.96 852.47 999.12 845.57 1071.04 882.03 1132.25 961.48 1185.72 1074.28 1218.09 1206.24 1230.18 1337.35 1229.14 1445.25 1212.49 1512.27 1185.63 1524.8 1151.8 1481.35 1114.43 1387.68 1077.6 1260.89 1039.09 1129.11 1004.55 1016.17 975.55 946.77 946.56 938.4 923.8 990.34 905.83 1089.57 886.18 1217.65 867.9 1345.48 847.05 1447.94 819.24 1508.68 782.17 1514.36 730.6 1465.75 665.91 1371.86 582.04 1248.81 478.32 1116.97 366.87 994.07 245.95 898.25 127.18 839.84 30.59 823.58 -36.27 847.1 -57.98 901.9 -30.54 980.91 46.07 1067.68 159.94 1149.37 326.25 1243.84 328.67 1264.06 99.09 1191.32 -85.13 1116.57 -231.98 1030.34 -291.02 939.27 -241.99 844.22 -100.48 753.52 79.93 670.52 217.36 592.96 252.29 526.05 156.08 469.5 -37.31 420.27 -249.98 379.78 -385.06 346.08 -377.8 317.48 -230.24 292.71 -15.08 269.74 149.56 249.13 175.27 227.99 39.27 204.98 -187.66 182.56 -381.79 157.11 -429.77 128.12 -302.32 99.12 -75.09 67.27 121.61 33.22 181.71 -0.24 77.49 -34.75 -126.57 -68.82 -323.01 -100.53 -404.89 -129.48 -334.33 -153.49 -146 -172.39 70.04 -183.41 218.48 -184.42 242.06 -178.13 140.4 -160.21 -30.86 -130.27 -200.84 -94.88 -293.66 -50.4 -276.8 -0.04 -156.91 46.34 23.66 89.42 206.43 122.68 345.24 137.09 403.98 131 381.05 99.53 290 41.56 167.62 -41.9 50.66 -146.95 -39.8 -262.88 -77.68 -381.93 -60.71 -491.15 5.83 -576.14 108.37 -627.77 228.09 -637.38 357.78 -604.84 476.87 -532.65 577.15 -431.02 661.6 -320.43 722.82 -216.25 764.84 -138.72 792.07 -106.46 808.11 -125.97 819.19 -197.89 823.94 -311.53 830.59 -447.88 842.83 -581.7 853.77 -686.68 873.08 -741.57 902.08 -733.22 931.07 -663.85 969.06 -547.98 1014.6 -410.46 1058.84 -277.92 1107.83 -175.7 1157.77 -121.06 1201.37 -122.38 1239.04 -175.55 1264.41 -267.08 1275 -381.83 1265.28 -494.91 1231.07 -586.46 1181.05 -644.67 1110.96 -657.5 1028.87 -624.75 956.76 -551.62 900.44 -448.53 878.58 -329.87 906.3 -207.06 987.33 -95.55 1119.29 -5.22 1277.74 58.99 1439.93 93.02 1568.98 98.95 1629.92 78.44 1607.37 39.38 1502.8 -10.42 1354.27 -69.32 1205.97 -125.92 1116.27 -174.78 1129.6 -217.63 1250.52 -246.53 1446.36 -260.91 1643.49 -264.35 1768.78 -254.21 1766.46 -232.95 1639.27 -203 1442.1 -165.8 1270.13 -124.3 1215.93 -78.18 1311.66 -31.18 1519.29 14.5 1734.55 61.9 1847.3 106.07 1792.93 145.76 1601.96 185.8 1377.67 220.62 1250.22 249.62Q1250.22 249.62 1250.22 249.62" opacity="0.74"></path><path d="M1197.7 101.62C1237.61 128.81 1408.17 154.25 1619.36 178.38 1769.28 203.06 1782.63 227.5 1657.23 252.84 1451.27 280.3 1258.73 310.65 1160.03 345.51 1191.03 384.63 1330.02 430.49 1511.07 484.42 1662.96 543.89 1720.87 612.2 1666.61 689.07 1519.48 769.13 1331.39 854.65 1162.33 942.41 1056.2 1025.05 1039.13 1102.07 1102.7 1167.83 1224.56 1216.37 1360.32 1245 1471.43 1249.55 1536.26 1230.85 1535.92 1187.8 1475.81 1123.24 1366.81 1047.75 1232.19 965.37 1094.92 886.59 965.79 826.03 864.53 789.8 795.84 786.63 758.06 821.44 749.44 892.51 761.04 994.36 791.12 1114.35 827.03 1238.86 861.13 1350.42 898.83 1431.99 927.25 1471.4 944.3 1460.76 959.85 1402.89 963.65 1304.84 956.32 1182.63 948.13 1060.55 930.27 957.77 903.09 894.28 875.91 884.55 840.05 928.12 795.29 1015 749.66 1131.19 693.69 1252.86 626.88 1358.69 558.57 1433.96 479.79 1464.04 392.77 1445.71 309.36 1382.97 225.17 1285.17 147.98 1167.38 89.27 1043.83 51.95 931.41 45.1 842.53 69.16 784.68 127.09 762.21 214.32 773.04 309.7 814.54 403.86 876.57 473.96 948.98 495.19 1026.94 458.2 1097.17 357.74 1152.72 211 1192.72 41.32 1210.43 -112.63 1206.18 -208.29 1182.23 -221.5 1139.95 -143.67 1083.86 -2.91 1015.53 158.82 940.86 281.71 864.18 311.73 784.23 231.66 707.54 59.85 636.21 -141.12 566.64 -297.8 504.02 -344.14 448.46 -260.78 395.64 -81.22 349.09 114.24 308 229.15 268.64 207.79 233.32 52.5 201.26 -164.05 169.7 -337.37 140.44 -377.28 113.25 -262.01 86.07 -52.3 61.61 144.96 40.22 235.61 19.34 179.74 2.49 11.72 -9.41 -189.58 -19.58 -326.15 -23.39 -338.98 -19.89 -224.32 -13.64 -31.08 0.69 162.01 23.15 285.92 47.38 298.59 78.13 207.56 113.45 49.83 145.49 -108.96 176.84 -213.17 203.27 -232.76 217.46 -159.77 219.28 -19.79 204.34 153.42 169.7 313.11 114.66 426.49 39.03 477.95 -52.14 463.94 -156.29 400.24 -266.35 301.32 -370.86 197.33 -463.15 109.55 -532.95 45.05 -572.09 19.03 -575.96 30.01 -542.36 73.5 -477.72 142.38 -387.46 225.51 -283.82 321.54 -185.96 416.67 -105.86 504.64 -58.46 591.42 -55.47 666.26 -98.54 728.96 -184.29 788.12 -300.61 836.97 -430.28 877.24 -551.85 916.2 -644.11 948.93 -690.43 976.11 -680.7 1003.29 -617.21 1024.28 -511.67 1038.27 -384.22 1050.96 -256.63 1054.28 -150.58 1046.38 -82.22 1034.94 -61.09 1010.46 -87.52 973 -153.75 934.35 -249.97 887.5 -356.79 838.57 -456.85 802.55 -538.77 779.6 -587.69 780.74 -598.25 814.4 -570.84 883.75 -508.26 990.14 -419.41 1119.82 -312.32 1264.27 -199.68 1402.08 -92.09 1504.67 4.56 1556.02 81.54 1540.18 135.86 1462.42 166.94 1336.66 175.64 1195.54 166 1087.66 139.12 1044.94 102.56 1092.83 61.82 1225.35 15.95 1410.49 -26.23 1592.46 -61.65 1707.74 -93.89 1717.22 -116.26 1613.23 -128.63 1352.29 -134.24 1268.14 -98.37 1554.71 -64.56 1733.22 -38.64 1797.09 -10.91 1711.82 17.35 1519.92 46.17 1312.97 74.44 1197.7 101.62Q1197.7 101.62 1197.7 101.62" opacity="0.21"></path><path d="M1145.22 149.1C1177.55 174.47 1327.65 203.16 1525.36 235.25 1687.35 267.71 1741.82 304.27 1669.61 345.38 1501.09 387.7 1304.41 435.51 1153.85 489.13 1100.36 544.41 1157.67 605.71 1295.85 672.5 1465.69 739.59 1601.85 810.32 1660.24 882.57 1625.13 950.57 1507.05 1015.45 1343.08 1073.47 1172.93 1119.99 1041.63 1153.66 974.19 1170.85 978.44 1170.97 1044.43 1151.91 1147.44 1113.47 1266.99 1061.6 1369.87 996.47 1437.08 923.59 1462.49 854.31 1439.96 792.05 1378.02 745.41 1283.79 724.01 1173.27 730.53 1060.27 768.4 947.36 836.36 849.16 929.94 769.23 1040.93 703.61 1156.3 656.57 1264.44 624.16 1351.38 603.15 1405.4 590.21 1418.94 580.56 1388.56 575.78 1319.92 569.09 1220.38 557.65 1104.35 547.26 992.39 529.92 899.54 504.55 841.77 479.17 830.92 446.38 866.72 407.36 941.63 369.38 1045.33 327.37 1158.71 284.3 1264.15 246.11 1349.05 212.05 1398.81 187.03 1407.73 173.41 1376.28 175.39 1308.22 197.04 1213.44 233 1102.25 288.34 988.47 359.58 884.13 430.93 797.35 501 736.36 556.13 703.85 578.97 700.53 563.74 722.8 502.03 764.67 398.52 823.22 260.8 888.04 108 951.9 -28.25 1013.54 -125.9 1063.62 -160.11 1099.09 -122.64 1121.54 -19.58 1126.93 124.14 1116.68 261.7 1093.03 355.19 1057.11 367.67 1012.22 286.65 958.91 129.81 901.31 -58.62 842.34 -215.39 779.97 -289.22 719.42 -250.04 662.35 -113.81 604.71 70.75 551.8 229.47 504.24 291.89 456.94 229.96 415.03 62.96 378.68 -139.77 342.48 -292.44 311.59 -324.77 286.21 -221.15 260.84 -29.61 241.59 163.81 228.37 278.19 215.31 267.85 208.52 144.05 207.97 -41.56 207.69 -208.39 213.6 -291.38 225.2 -261.83 236.24 -130.5 251.73 53.05 270.14 286.23 292.51 224.94 312.51 12.33 294.8 -109.86 265.96 -168.63 222.8 -152.32 164.06 -66.16 92.29 68.21 7.38 220.03 -87.5 366.13 -184.62 477.97 -281.1 543.69 -369.62 560.87 -441.44 534.42 -491.97 478.29 -515.08 399.68 -508.99 319.2 -472.59 249.07 -408.45 189.29 -326.75 152.51 -233.64 138.62 -141.04 142.72 -64.86 165.38 -13.3 200.73 3.82 246.96 -19.39 297.98 -81.25 348.9 -175.94 403.55 -291.16 453.51 -412.01 496.36 -520.73 539.84 -600.67 574.75 -639.05 600.12 -628.22 625.49 -570.47 640.73 -475.06 646.66 -358.08 653.23 -237.02 651.96 -130.01 645.15 -51.57 642.08 -11.39 638.06 -12.8 637.86 -52.5 648.54 -125.12 670.94 -216.73 710.81 -313.51 768.67 -405.91 848.32 -478.82 949.75 -524.15 1061.54 -539.39 1182.47 -521.34 1300.18 -473.52 1395.41 -400.47 1459.63 -309.96 1478.74 -210.72 1449.32 -107.88 1372.32 -11.08 1259.47 74.03 1140.91 145.73 1038.19 199.62 981.99 235.8 995.64 254.91 1082.65 259.01 1231.27 251.59 1404.22 232.67 1560.98 208.24 1655.31 181.9 1657.67 151.3 1565.88 123.44 1407.53 100.32 1242.56 77.5 1127.76 61.26 1112.52 52 1209.83 44.41 1388.77 43.61 1584.18 49.13 1717.78 55.87 1735.58 68 1626.22 84.95 1437.81 102.28 1248.84 123.73 1145.22 149.1Q1145.22 149.1 1145.22 149.1" opacity="0.84"></path><path d="M1092.71 361C1118.17 384.56 1248.3 413.6 1429.69 447.81 1596.28 482.06 1683.48 521.5 1662.53 565.75 1542.64 609.86 1366.3 658.4 1193.09 710.54 1074.95 761.48 1046.4 814.6 1108.16 868.24 1238.67 918.09 1391.6 965.58 1520.47 1008.21 1593.42 1042.99 1588.28 1069.14 1510.26 1084.07 1377.19 1087.57 1221.82 1077.42 1076.97 1052.68 964.88 1017.33 905.43 969.6 900.53 912.03 945.92 852.69 1024.95 792.04 1118.12 735.91 1215.05 693.35 1293.97 666.43 1345.6 660.55 1369.68 679.86 1361.37 724.41 1326.13 793.45 1267.67 881.82 1194.37 984.05 1114.52 1091.31 1027.2 1192.06 943.51 1277.38 867.34 1337.1 792.68 1364.3 728.21 1354.95 673.89 1308.79 622.2 1233.08 579.16 1134.73 543.58 1026.24 508.94 924.66 480.05 841.49 456.49 789.26 432.93 777.56 415.26 806.22 404.01 869.68 393.71 960.59 391.53 1063.95 398.79 1165.6 408.69 1255.32 429.52 1319.43 461.43 1351.07 494.85 1348.61 536.71 1311.51 583.2 1245.26 622.22 1156.49 655.71 1055.01 675.49 950.94 672.05 851.46 642.8 765.95 582.41 699.79 494.48 655.58 380.49 634.93 249.85 635.96 122.98 657.67 11.6 694.26 -64.66 740.29 -90.64 794.83 -60.6 849.37 23.67 899.57 140.7 946.58 269.84 983.58 378.39 1009.27 431.87 1026.37 414.19 1031.49 320.22 1025.86 170.34 1011.89 -1.78 989.47 -149.56 960.79 -228.59 926.57 -215.38 888.95 -110.53 849.92 49.37 808.15 214.46 767.09 325.27 728.11 337.12 688.14 242.99 651.38 71.73 618.66 -114.3 585.73 -246.82 557.26 -272.28 533.7 -179.88 510.14 -6.91 492.05 178.77 479.09 309.81 465.93 339.87 457.48 263.96 453.02 110.54 447.57 -61.04 444.99 -191.11 444.01 -239.98 440.3 -190.52 436.07 -61.62 429.47 109.91 417.33 273.3 399.93 386.74 375.22 426.5 342.17 388.27 299.49 291.04 246.09 159.37 184.09 32.63 112.03 -59.6 31.3 -102.08 -52.59 -83.94 -139.48 -13.02 -224.9 99.33 -301.81 231.14 -367.8 361.85 -417.32 480.68 -446.17 570.67 -451.75 627.51 -432.07 651.9 -390.44 646.66 -327.77 620.41 -249.3 575.35 -166.23 524.35 -83.95 475.14 -12.45 424.33 36.52 383.74 58.28 355.28 47.45 331.73 2.51 320.46 -72.84 319.78 -171.65 322.94 -282.39 333.76 -392.69 350.17 -488.26 367.74 -556.37 388.73 -587.42 412.28 -575.72 435.84 -523.49 461.42 -437.93 489.74 -331.69 519.21 -218.54 553.6 -113.26 594.88 -28.46 639.98 26.79 694.9 47.39 761.19 33.48 832.39 -12.94 914.82 -82.92 1006.46 -166.41 1096.49 -256.4 1187.31 -339.43 1271.05 -406.78 1357.38 -465.67 1342.7 -414.33 1230.11 -317.38 1133.11 -233.43 1033.65 -143.37 952.18 -53.16 912.13 35.28 923.39 115.36 993.7 184.42 1113.74 242.87 1266.72 288.08 1422.92 320.89 1544.68 342.27 1605.74 353.67 1586.99 357.57 1494.56 353.63 1350.38 345.94 1196.1 336.92 1084.47 324.11 1050.35 312.83 1112.51 304.63 1255.88 295.23 1438.72 290.34 1601.23 290.66 1686.23 290.83 1663.1 296.61 1536.72 308.25 1355.69 319.92 1185.11 337.44 1092.71 361Q1092.71 361 1092.71 361" opacity="0.84"></path><path d="M1040.22 598.38C1059.47 620.13 1170.33 645.66 1333.18 674.56 1497.48 703.21 1608.02 734.71 1632.51 768.28 1565.9 800.77 1428.68 834.19 1262.14 867.26 1109.62 897.68 1011.99 925.9 989.37 950.24 1043.43 969.71 1153.96 983.05 1288.52 988.6 1417.7 987.32 1506.74 976.68 1538.16 955.89 1508.13 928.55 1423.05 891.93 1302.01 847.24 1162.69 800.62 1031 750.59 924.7 700.69 836.95 640.74 899.96 601.55 1001.5 640.79 1077.89 693.49 1144.81 764.55 1196.41 850.67 1235.37 945.02 1254.53 1042.5 1255.87 1135.13 1243.35 1214.04 1217.8 1272.99 1183.79 1305.38 1141.95 1308.24 1097.42 1279.95 1053.75 1222.31 1007.3 1143.12 965 1048.4 928.69 948.59 891.87 857.52 862.18 783.69 840.44 736.77 818.69 724.45 805.4 746.58 799.87 799.18 793.81 877.25 794.38 969.29 799.82 1064.25 802.48 1154.27 806.72 1227.23 809.11 1276.12 803.66 1298.32 790.59 1290.46 765.42 1254.57 726.4 1194.34 670.49 1115.51 595.83 1025.47 508.51 929.73 406.94 836.71 297.03 752.51 192.85 680.26 98.71 624.68 26.94 587 -11.04 567.47 -10.07 564.93 33.75 576.59 111.55 601.96 216.1 635.65 329.73 673.82 425.1 717.24 485.96 759.29 493.36 797.36 439.29 833.97 329.17 863.49 180.6 885.21 26.64 902.55 -101.6 911.8 -171.6 913.64 -164.93 911.18 -81.45 902.62 58.79 889.2 213.06 872.91 339.89 853.42 398.11 831.93 365.23 809.08 248.29 785.52 79.68 762.1 -87.46 738.33 -200.52 715.38 -219.77 693.63 -138.09 671.89 16.13 651.86 190.64 633.27 331.23 614.33 394.63 596.16 365.93 577.99 255.76 558.48 102.36 537.69 -46.91 514.52 -152.82 488.49 -183.4 458.43 -133.6 423.2 -16.78 383.68 136.45 337.69 289.29 284.64 411.93 227.22 478.7 163.04 482.66 92.91 427.33 21.33 331.3 -53.08 218.73 -127.62 107.22 -196.9 22.59 -260.46 -22.79 -314.33 -25.94 -354.51 14.09 -379.11 87.88 -385.26 188.18 -373.27 299.51 -341.91 409.52 -292.3 514.82 -230.75 603.08 -158.8 671.37 -82.46 721.85 -11.81 752.54 49.29 767.57 93.58 768.65 113.54 761.13 107.25 749.96 72.79 732.59 11.64 717.23 -71.69 706.81 -170.1 694.81 -273.45 690.08 -371.89 693.78 -454.27 697.31 -511.18 709.72 -535.53 731.46 -523.22 753.21 -476.32 783.78 -400.29 822.6 -304.93 861.27 -200.81 907.73 -99.68 960.74 -12.1 1012.17 53.94 1067.82 92.62 1124.64 102.04 1175.26 81.93 1221.41 37.14 1258.02 -25.81 1280.68 -102.51 1286.73 -182.26 1271.96 -257.22 1239.38 -323.95 1185.78 -373.94 1114 -404 1037.5 -414.25 958.54 -402.74 889.36 -371.67 846.68 -323.27 836.51 -261.28 868.15 -190.25 942.04 -111.85 1053.82 -31.96 1191.01 45.76 1329.26 121.57 1449.5 190.56 1527.48 251.42 1546.16 305.72 1500.46 351.03 1397.22 388.01 1263.78 418.18 1128.25 441.59 1027.37 459.8 993.52 473.14 1038.26 483.54 1156.44 492.58 1317.98 498.96 1481.77 505.83 1600.33 514.35 1637.43 521.79 1580.43 532.02 1444.14 545.73 1273.93 559.19 1121.9 576.64 1040.22 598.38Q1040.22 598.38 1040.22 598.38" opacity="0.77"></path><path d="M987.72 705.83C1001.44 725.76 1093.96 745.58 1236.77 765 1392.69 784.11 1516.8 802.25 1577.76 818.74 1562.7 834.11 1475.56 846.79 1340.01 855.88 1186.33 862.71 1050.68 864.73 960.41 861.1 930.64 854.29 963.55 841.04 1046.22 821.01 1162.09 798.08 1282.61 768.91 1384.1 734.28 1452.59 699.34 1473.7 661.59 1447.23 623.21 1378.13 589.84 1278.31 560.47 1163.25 538.17 1042.76 527.44 933.87 528.47 845.76 543.63 780.97 574.2 744.46 620.16 733.45 681.05 745.92 753.65 775.15 836.04 814.02 923.97 862.79 1010.8 910.94 1092.5 953.94 1162.84 996.23 1215.95 1028.98 1247.92 1051.5 1255.11 1070.12 1237.46 1079.04 1194.82 1079.59 1130.04 1077.41 1050.74 1069.01 961.74 1055.83 871.47 1041.84 790.9 1024.59 726.07 1004.66 684.27 984.73 671.59 962.57 687.89 937.74 730.37 912.09 795.85 882.23 875.7 846.82 961.62 808.68 1047.9 762.82 1124.32 708.03 1184.41 649.35 1225.46 581.2 1242.51 504.36 1235.26 426.81 1205.37 344.98 1155.01 263.48 1088.83 191.87 1010.5 130.87 926.22 87.68 841.41 67.97 758.82 74.81 684.1 111.07 620.15 170.66 567.7 252.18 528.97 346.54 503.62 435.48 491.33 510.41 490.49 555.98 498.81 558.91 516.48 515.61 539.31 426.36 564.77 304.1 594.51 164.28 623.38 30.62 649.64 -69.81 676.42 -118.97 698.71 -103.81 715.85 -28.16 731.76 94.5 742.15 236.94 747.13 361.23 750.7 438.86 749.34 446.23 743.48 377.57 736.77 247.6 726.27 87.74 712.35 -59.01 698.18 -153.55 681.07 -167.27 661.14 -95.78 641.2 39.81 618.92 200.28 594.26 343.59 569.35 431.94 541.6 445.78 510.72 383.7 478.99 265.85 443.42 124.66 403.68 -8.37 362.54 -98.46 316.75 -127.04 266.29 -90.15 214.61 3.89 158.63 133.63 99.13 276.76 40.13 405.07 -20.5 498.69 -80.97 547.02 -137.15 545.66 -189.66 501.69 -235.85 423.05 -272.7 328.38 -299.23 234.1 -313.08 148.27 -313.86 86.83 -300.02 54.91 -271.11 51.96 -230.7 78.7 -178.17 128.99 -116.34 199.54 -52.29 281.22 12.67 366.53 73.22 455.82 121.63 539.2 155.74 613.53 171.03 682.91 163.67 741.11 133.65 788.87 81.37 830.88 10.03 864.68 -75.89 892.39 -169.86 916.88 -263.47 938.16 -349.19 957.94 -418.62 976.85 -465.06 995.95 -483.39 1015.88 -470.72 1035.82 -428.94 1056.11 -362.09 1076.03 -277.59 1095.08 -183.37 1112.06 -88.5 1125.16 -1.51 1135.05 70.97 1138.18 123.14 1132.34 152.04 1120.74 156.11 1097.95 137.12 1063.11 98.63 1023.32 42.9 973.63 -22.54 917.07 -91.6 864.49 -161.74 814.59 -224.82 774.77 -276.67 755.19 -316.81 758.13 -340.58 789.6 -347.61 850.04 -339.23 938.86 -315.38 1050.81 -278.53 1171.22 -230.1 1290.77 -173.36 1392.95 -111.47 1460.46 -44.57 1484.02 22.85 1456.44 88.51 1383.57 153.86 1274.59 214.81 1149.24 270.47 1037.27 323.23 959.47 370.17 937.19 411.52 980.38 449.7 1083.45 483.08 1227.74 512.42 1380.17 539.49 1507.55 563.74 1577.31 585.97 1571.17 607.07 1488.68 627.19 1349.32 646.9 1192.79 666.31 1059.21 685.89 987.72 705.83Q987.72 705.83 987.72 705.83" opacity="0.97"></path><path d="M935.2 612.9C944.12 631.02 1019.48 645.7 1141.44 656.93 1283.91 667.99 1412.09 675.28 1498.59 678.62 1527.83 681.44 1493.22 679.89 1404.28 673.81 1278.09 666.96 1140.16 655.43 1015.5 639.33 922.63 622.85 876.45 602.36 879.88 578.59 930 556 1013.65 531.78 1114.09 507.42 1219.07 487.23 1308.66 469.66 1371.39 456.74 1403.1 451.79 1398.49 454.53 1361.17 466.77 1295.37 489.79 1210.09 523.92 1115.1 569.56 1014.29 625.14 919.19 690.43 835.42 763.51 762.6 840.1 706.55 918.53 666.7 994.77 640.84 1063.62 628.19 1122.27 625.17 1166.5 631.47 1193.26 642.17 1200.34 653.94 1186.3 669.78 1152.97 683.03 1100.85 691.74 1033.14 701.56 956.74 705.3 875.21 702.08 795.1 699.01 724.9 688.62 668.67 670.5 631.78 652.37 619 626.95 630.14 594.73 663.33 562.65 716.71 524.13 783.98 480.13 859.1 437.24 938.26 390.42 1013.21 341.71 1078.48 297.06 1131.75 254.17 1167.59 216.46 1184.34 188.08 1182.52 170.11 1161.65 166.21 1124.02 176.31 1071.82 203.47 1008.59 248.36 938.32 304.2 863.02 372.33 787.55 447.21 715.19 516.27 646.62 576.66 585.61 618.71 533.43 632.28 489.68 614.27 455.75 561.16 431.06 477.04 415.09 367.27 406.83 243.42 404.72 124.11 409.07 22.9 417.13 -43.38 427.22 -62.97 440.98 -31.56 454.64 48.01 466.95 159.39 480.78 285.52 491.93 401.49 499.69 480.2 507.82 506.15 512 469.92 511.89 376.43 511.76 242.92 507.26 96.86 498.25 -28.68 489.19 -105.87 475.67 -114.79 457.55 -52.98 439.43 64.3 417.14 208.5 390.9 348.27 364.62 452.57 334.34 501.21 300.3 486.04 266.23 413.63 228.48 302.42 187.48 173.19 146.84 55.22 103.5 -29.47 58.26 -68.62 14.55 -54.21 -29.72 8.55 -73.24 109.72 -113.09 231.59 -150.04 355.5 -182.32 468.18 -208.15 553.64 -226.86 604.86 -236.82 619.75 -238.07 600.4 -229.02 554.45 -209.03 486.58 -180.6 410.12 -142.21 334.92 -95.04 263.21 -44.08 206.38 11.19 167.68 67.63 145.14 119.03 142.2 164.7 156.12 200.74 184.51 222.22 224.29 228.33 271.08 216.87 325.44 186.84 381.22 139.21 435.32 75.72 491.7 0.23 543.5 -83.36 589.35 -169.51 635.35 -251.63 674.72 -324.23 707.04 -381.2 739.25 -417.99 764.56 -430.98 782.69 -418.21 800.81 -381.34 811.31 -323.28 814.4 -249.5 817.37 -165.8 812.78 -78.93 800.96 4.45 789.29 79.16 771.06 139.94 747.56 183.51 726.33 207.78 702.74 212.5 679.79 199.03 664.4 168.09 655.25 124.21 656.61 71.52 672.45 11.45 704.27 -49.42 754.75 -107.14 821.37 -161.35 905.17 -206.46 1002.81 -240.65 1103.95 -264.89 1205.29 -276.4 1296.92 -275.68 1366.62 -264.16 1408.59 -242.02 1415.1 -211.15 1385.27 -172.29 1319.99 -127.75 1226.18 -79.63 1121.13 -27.34 1016.83 25.75 931.82 78.1 885.22 131.63 885.58 182.75 938.01 230.63 1035.99 278.13 1165.76 321.85 1305.22 361.58 1426.65 400.53 1507.72 435.65 1529.88 467.02 1488.24 497.85 1389.27 525.33 1253.08 549.57 1112.47 573.65 997.01 594.78 935.2 612.9Q935.2 612.9 935.2 612.9" opacity="0.85"></path><path d="M882.7 380.47C948.83 413.09 1176.14 428.95 1397.22 429.57 1472.66 430.85 1353.18 418.85 1123.87 397.94 907.07 383.7 813.79 369.85 863.32 365.96 1019.21 383.6 1189.41 425.33 1301.12 498.06 1329.72 597.7 1265.75 723.03 1145.69 861.25 990.33 988.55 843.55 1089.49 725.59 1140.66 625.16 1131.4 556.39 1058.16 509.01 932.91 470.21 791.29 437.67 661.04 405.05 579.28 372.43 574.39 341.28 641.81 318.56 758.14 304.42 898.95 313.85 1022.56 357.75 1102.07 419.18 1128.79 512.25 1094.88 617.33 1013.25 687.12 896.84 704.26 767.26 632.9 643.44 478.44 529.96 269.56 440.93 79.72 377.17 -3.77 334.13 60.24 309.5 253.14 295.15 458.53 291.17 559.44 286.97 471.42 276.46 237.75 268.13 3.83 248.86 -62.29 216.24 90.61 183.63 348.54 139.2 531.9 86.02 530.16 35.01 360.14 -20.11 144.41 -72.66 1.6 -114.85 16.05 -143.94 164.69 -151.19 381.93 -137.7 571.35 -95.51 676.15 -24.79 683.81 56.27 614.21 147.17 514.06 229.63 399.98 277.3 317.86 281.97 277.13 231.35 262.28 127.94 279.26 -14.22 312.31 -167.61 354.12 -296.54 395.18 -370.59 427.81 -365.72 460.43 -283.98 483.06 -147.12 502.76 7.07 531.23 144.92 573.57 236.74 644.95 269.92 742.19 242.67 878.03 170.99 1042.38 77.65 1192.82 -26.59 1309.26 -113.25 1344.38 -170.15 1282.35 -200.13 1131.62 -195.03 948.34 -162.39 833.65 -108.22 848.41 -40.66 1015.11 30.09 1254.74 107.53 1443.36 178.87 1457.73 239.11 1287 300.01 1035.67 347.84 882.72 380.46Q882.7 380.47 882.7 380.47" opacity="0.30"></path><path d="M830.22 160.83C878.2 189.82 1065.14 209.49 1277.65 221.88 1409.2 236.35 1388.91 247.72 1239.01 260.89 1026.55 282.65 845.41 314.2 755.52 361.3 773.08 424.02 873.36 506.87 1004.18 608.96 1135.99 718.99 1219.83 835.28 1245.89 944.19 1222.69 1028.72 1158.48 1079.26 1076.54 1082.96 978.05 1040.22 887.09 951.71 813.95 830.68 740.39 706.08 687.99 596.16 659 526.77 630.01 518.4 625.78 567.9 644.66 660.11 663.12 780.37 701.34 898.28 749.58 991.96 781.27 1053.47 797.73 1068.82 776.24 1040.98 705.5 976.7 580.03 886.24 410.22 784.03 241.39 673.95 106.73 570.84 58.98 481.29 118.68 400.51 273.81 335.91 465.02 285.4 593.67 242.78 597.46 208.59 454.71 178.9 231.02 151.62 38.2 124.31 -9.77 95.32 117.67 66.32 343.57 37.02 539.58 9.61 610.37 -15.37 530.32 -33.93 357.3 -41.56 169.51 -41.29 60.77 -24.44 66.11 11.64 176.37 56.5 347.43 117.99 521.07 190.06 667.09 254.27 751.39 310.35 777.61 344.44 754.35 342.1 704.81 300.75 652.87 218 592.29 103.07 550.64 -31.33 533.02 -162.78 517.53 -266.18 524.52 -321.57 553.52 -313.22 582.51 -243.85 632.13 -128.06 702.3 7.72 774.61 139.95 869.01 244.97 979.83 308.98 1082.02 326.54 1179.31 302 1247.26 247.67 1265.73 168.95 1223.05 87.04 1115.04 15 911.06 -69.69 854.87 -102.65 1131.29 -66.06 1325.56 -28.98 1422.12 12.38 1362.51 52.6 1177.69 94.88 957.67 131.83 830.22 160.83Q830.22 160.83 830.22 160.83" opacity="0.80"></path><path d="M777.7 97.89C810.09 123.26 956.64 150.27 1145.59 179.83 1304.44 211.16 1364.46 248.31 1312.11 293.66 1169.8 344.44 989.97 407 829.06 482.14 719.07 562.68 683.2 653.5 710.83 749.55 790.1 839.39 887.37 921.51 976.46 985.37 1057.99 1022.42 1108.29 1027.12 1128.55 994.42 1131.57 930.89 1114.96 838.13 1088.82 727.94 1057.36 622.32 1026.55 532.05 1001.18 474.28 975.81 463.43 957.08 497.23 940.69 566.36 918.99 663.08 889.44 766.49 842.45 860.5 778.22 939.82 686.14 989.28 565.52 1006.31 437.33 994.52 303.62 954.73 191.11 895.25 130.22 819.48 136.01 737.12 219.58 655.85 354.08 572.38 511.15 496.81 634.87 431.7 668.62 369.01 594.16 316.57 425.52 274.06 226.78 232.77 75.09 199.39 42.7 174.02 146.29 148.65 336.63 132.49 527.7 125.94 647.41 120.59 654 126.89 560.33 145.6 402.24 166.74 247.06 200.54 144.59 244.9 113.51 287.06 162.46 333 266.95 375.53 408.01 401.75 549.75 411.47 669.86 396.84 769.25 353.4 834.5 281.19 872.75 183.28 891.86 70.68 899.56 -47.16 906.83 -153.67 909.37 -232.6 921.14 -271.55 946.51 -260.72 971.88 -202.97 1009.64 -107.56 1054.94 7.84 1095.53 127.82 1133.98 235.03 1158.85 317.17 1164.58 368.47 1141.12 386.53 1080.84 375.9 999.83 338.45 894.52 286.41 786.71 229.83 715.46 167.03 696.56 112.63 754.05 71.19 882.91 35.16 1060.84 14.37 1237.53 7.56 1349.82 6.18 1357.71 15.18 1247.81 31.69 1066.55 49.98 881.34 72.51 777.72 97.88Q777.7 97.89 777.7 97.89" opacity="0.66"></path><path d="M725.22 232.87C744.47 254.61 852.46 284.91 1007.34 323.21 1165.89 362.13 1274.45 410.02 1307.21 466.37 1262.32 523.61 1153.85 588.83 1014.12 659.55 865.93 727.59 742.24 796.22 657.96 859.88 614.09 911.46 610.24 949.14 633.07 966.71 679.5 962.78 730.49 933.74 774.45 879.17 821.15 807.83 852.21 720.43 865.35 626.07 877.33 540.38 872.55 468.69 850.8 421.77 829.06 409.45 791.38 430 738.39 478.04 684.23 550.28 613.61 633.27 529.23 716.3 447.58 797.01 360.78 862.2 280.83 907.33 224.49 935.14 197.12 940.69 212.49 927.08 268.27 897.96 366.17 856.16 491.71 807.29 608.81 750.98 697.77 694.01 726.72 640.48 678.02 585.06 557.08 535.96 390.14 495.27 226.87 454.44 114.47 422.51 95.22 400.76 176.9 379.01 330.15 368.48 501.53 368.3 643.24 367.98 715.25 377.53 707.44 395.26 626.87 411.1 505.37 432.26 379.28 455.06 233.85 475.7 243.15 451.05 359.71 384.93 460.18 317.16 557.32 232.47 641.8 135.83 723.82 36.87 789.07 -58.49 837.91 -139.13 884.3 -195.57 918.03 -220.54 939.78 -208.23 961.52 -161.33 970.25 -85.23 964.87 8.84 957.04 111.6 931.35 211.38 887.03 298.67 840.23 369.18 778.9 417.73 711.94 444.3 661.25 449.38 627.77 437.49 628.67 414.41 674.26 379.25 767.17 341.84 901.68 307.32 1050.42 270.11 1191.42 240.71 1287.93 221.15 1311.68 202.49 1252.05 194.15 1118.73 196.24 955.74 198.96 806.9 211.12 725.22 232.87Q725.22 232.87 725.22 232.87" opacity="0.73"></path><path d="M672.7 477.35C681.62 495.48 754.8 521.76 870.22 555.01 1006.17 587.95 1127.6 627.12 1211.33 670.64 1249.21 712.29 1233.59 755.99 1174.06 798.69 1079.98 835.75 969.74 867.53 860.15 890.23 754.28 902.14 667.49 900.54 602.65 882.93 554.31 852.34 524.74 805.58 507.9 744.25 500.88 676.6 497.73 601.98 492.83 526.56 490.35 460.69 481.26 406.17 463.14 369.28 445.01 356.5 418.72 366.44 387.02 396.23 357.75 445.1 327.93 504.96 303.55 569.41 288.98 638.35 288.71 701.93 309.12 755.9 346.02 803.1 406.8 836.59 488.92 856.26 574.76 866.34 663.51 864.28 738.72 852.68 779.38 834.22 778.75 810.02 727.59 783.11 630.57 753.09 498.83 723.43 355.89 696.45 233.48 668.71 156.62 645.13 147.7 627.01 209.51 608.89 326.11 597.08 467.23 590.64 605.55 583.45 711.59 580.14 769.31 578.76 773.76 574.26 730.7 568.62 656.1 559.14 558.59 542.82 462.3 518.86 381.62 485.03 315.62 441.6 277.5 386.63 265.3 320.56 272.43 247.72 297.33 167.89 331.79 85.67 375.15 7.93 418.68 -62.23 456.61 -118.1 496.32 -154.88 526.56 -168.49 544.68 -155.71 562.8 -118.82 567.95 -60.63 562.41 12.23 558.67 94.64 548.09 179.57 536.14 260.51 533.09 335.12 538.03 398.13 558.83 447.59 598.96 484.07 663.1 507.16 752.85 519 857.29 520.06 975.06 514.29 1091.44 505.16 1184.91 490.39 1244.22 476.53 1253.05 466.29 1208.62 454.17 1112.89 447.96 981.57 449.21 847.43 450.13 734.51 459.23 672.7 477.35Q672.7 477.35 672.7 477.35" opacity="0.79"></path><path d="M620.21 671.16C668.19 700.16 846.65 739.8 1038.52 780.37 1170.92 812.45 1179.9 829.8 1096.12 817.81 951.29 781.5 804.08 706.36 692.92 598.58 589.95 490 525.16 386.13 496.16 316.76 467.17 308.41 476.72 353.06 529.44 430.07 590.35 532.72 692.31 626.64 799.14 694.16 844.92 748.52 805.18 771.04 651.53 768.09 438.4 757.01 248.19 733.5 200.21 704.51 327.65 675.52 550.88 643.78 741.92 604.61 833.4 557.31 805.47 489.54 712.98 397.18 581.68 291.66 480.74 166.98 431.59 43.08 398.63 -55.18 402.9 -111.58 431.89 -103.23 460.88 -33.86 511.86 81.76 595.07 211.59 694.46 340.62 840.65 446.52 1009.97 520.83 1140.45 570.82 1199.14 598.72 1128.91 616.89 959.12 626.57 747.65 642.17 620.21 671.16Q620.21 671.16 620.21 671.16" opacity="0.22"></path><path d="M567.83 687.21C586.74 708.96 688.76 721.6 825.31 722.42 969.67 719.07 1069.91 697.26 1112.96 654.51 1113.43 604.46 1075.51 534.47 1025.93 452.4 964.64 378.55 916.11 311.12 894.36 264.2 872.62 251.88 879.71 269.28 903.32 307.68 915.21 367.15 919.2 429.47 890.23 482.82 818.67 537.63 695.37 575.19 535.06 592.28 382.57 607.28 271.74 604.17 252.83 582.43 334.82 560.68 486.3 522.35 648.41 469.67 789.56 414.89 874.88 343.39 905.15 260.08 890.66 178.23 854.28 92.85 823.28 17.43 784.25 -36.89 770.49 -63.11 792.23 -50.79 813.98 -3.87 869.17 72.36 945.89 162.15 1014.58 260.16 1084.9 353.22 1127.89 431.77 1126.12 503.02 1063.87 558.77 938.65 599.81 792.49 636.68 649.82 665.46 567.83 687.21Q567.83 687.21 567.83 687.21" opacity="0.38"></path><path d="M515.2 515.2C563.23 544.19 724.81 515.85 861.24 443.02 978.06 373 1010.19 281.16 981.2 211.78 952.21 203.41 867.57 238.42 712.75 281.25 538.32 341.5 353.23 369.91 305.2 340.92 432.61 311.93 650.45 231.02 814.7 132.76 933.04 51.93 985.84 -6.58 1014.83 1.78 1043.82 71.16 1043.53 186.51 963.19 294.53 836.94 405.37 642.61 486.21 515.2 515.2Q515.2 515.2 515.2 515.2" opacity="0.71"></path></g></svg>